<mxfile host="app.diagrams.net" modified="2024-05-19T00:03:01.497Z" agent="Mozilla/5.0 (Windows NT 10.0; Win64; x64) AppleWebKit/537.36 (KHTML, like Gecko) Chrome/124.0.0.0 Safari/537.36" etag="YZ-wbgG_rb6YISoZoYTR" version="24.4.3" type="google">
  <diagram name="Página-1" id="7-9uCXQv2Nr1mJzeoew3">
    <mxGraphModel grid="1" page="1" gridSize="10" guides="1" tooltips="1" connect="1" arrows="1" fold="1" pageScale="1" pageWidth="1169" pageHeight="827" background="none" math="0" shadow="0">
      <root>
        <mxCell id="0" />
        <mxCell id="1" parent="0" />
        <mxCell id="Q8J0EgSjeOoPt-JhZ52s-5" value="Categorías" style="swimlane;fontStyle=0;childLayout=stackLayout;horizontal=1;startSize=26;horizontalStack=0;resizeParent=1;resizeParentMax=0;resizeLast=0;collapsible=1;marginBottom=0;align=center;fontSize=14;hachureGap=4;fontFamily=Times New Roman;fillColor=default;swimlaneLine=1;" vertex="1" parent="1">
          <mxGeometry x="110" y="140" width="160" height="86" as="geometry" />
        </mxCell>
        <mxCell id="Q8J0EgSjeOoPt-JhZ52s-6" value="&lt;font face=&quot;Times New Roman&quot;&gt;CategoriaID&lt;/font&gt;&lt;div&gt;&lt;font face=&quot;Times New Roman&quot;&gt;&lt;span style=&quot;white-space: pre;&quot;&gt;&#x9;&lt;/span&gt;&lt;span style=&quot;white-space: pre;&quot;&gt;&#x9;&lt;/span&gt;&lt;/font&gt;&lt;br&gt;&lt;/div&gt;" style="text;strokeColor=#6c8ebf;fillColor=#dae8fc;spacingLeft=4;spacingRight=4;overflow=hidden;rotatable=0;points=[[0,0.5],[1,0.5]];portConstraint=eastwest;fontSize=12;whiteSpace=wrap;html=1;fontFamily=Architects Daughter;fontSource=https%3A%2F%2Ffonts.googleapis.com%2Fcss%3Ffamily%3DArchitects%2BDaughter;" vertex="1" parent="Q8J0EgSjeOoPt-JhZ52s-5">
          <mxGeometry y="26" width="160" height="30" as="geometry" />
        </mxCell>
        <mxCell id="Q8J0EgSjeOoPt-JhZ52s-7" value="&lt;font face=&quot;Times New Roman&quot;&gt;Nombre&lt;/font&gt;" style="text;strokeColor=none;fillColor=none;spacingLeft=4;spacingRight=4;overflow=hidden;rotatable=0;points=[[0,0.5],[1,0.5]];portConstraint=eastwest;fontSize=12;whiteSpace=wrap;html=1;fontFamily=Architects Daughter;fontSource=https%3A%2F%2Ffonts.googleapis.com%2Fcss%3Ffamily%3DArchitects%2BDaughter;" vertex="1" parent="Q8J0EgSjeOoPt-JhZ52s-5">
          <mxGeometry y="56" width="160" height="30" as="geometry" />
        </mxCell>
        <mxCell id="Q8J0EgSjeOoPt-JhZ52s-10" value="Productos" style="swimlane;fontStyle=0;childLayout=stackLayout;horizontal=1;startSize=26;horizontalStack=0;resizeParent=1;resizeParentMax=0;resizeLast=0;collapsible=1;marginBottom=0;align=center;fontSize=14;hachureGap=4;fontFamily=Times New Roman;fillColor=default;swimlaneLine=1;" vertex="1" parent="1">
          <mxGeometry x="330" y="60" width="160" height="158" as="geometry" />
        </mxCell>
        <mxCell id="Q8J0EgSjeOoPt-JhZ52s-11" value="&lt;div&gt;&lt;font face=&quot;Times New Roman&quot;&gt;ProductoID&lt;span style=&quot;white-space: pre;&quot;&gt;&#x9;&lt;/span&gt;&lt;span style=&quot;white-space: pre;&quot;&gt;&#x9;&lt;/span&gt;&lt;/font&gt;&lt;/div&gt;" style="text;strokeColor=#6c8ebf;fillColor=#dae8fc;spacingLeft=4;spacingRight=4;overflow=hidden;rotatable=0;points=[[0,0.5],[1,0.5]];portConstraint=eastwest;fontSize=12;whiteSpace=wrap;html=1;fontFamily=Architects Daughter;fontSource=https%3A%2F%2Ffonts.googleapis.com%2Fcss%3Ffamily%3DArchitects%2BDaughter;" vertex="1" parent="Q8J0EgSjeOoPt-JhZ52s-10">
          <mxGeometry y="26" width="160" height="30" as="geometry" />
        </mxCell>
        <mxCell id="Q8J0EgSjeOoPt-JhZ52s-12" value="&lt;font face=&quot;Times New Roman&quot;&gt;CategoriaID&lt;/font&gt;" style="text;strokeColor=#b85450;fillColor=#f8cecc;spacingLeft=4;spacingRight=4;overflow=hidden;rotatable=0;points=[[0,0.5],[1,0.5]];portConstraint=eastwest;fontSize=12;whiteSpace=wrap;html=1;fontFamily=Architects Daughter;fontSource=https%3A%2F%2Ffonts.googleapis.com%2Fcss%3Ffamily%3DArchitects%2BDaughter;" vertex="1" parent="Q8J0EgSjeOoPt-JhZ52s-10">
          <mxGeometry y="56" width="160" height="34" as="geometry" />
        </mxCell>
        <mxCell id="Q8J0EgSjeOoPt-JhZ52s-13" value="&lt;font face=&quot;Times New Roman&quot;&gt;Nombre&lt;/font&gt;" style="text;strokeColor=none;fillColor=none;spacingLeft=4;spacingRight=4;overflow=hidden;rotatable=0;points=[[0,0.5],[1,0.5]];portConstraint=eastwest;fontSize=12;whiteSpace=wrap;html=1;fontFamily=Architects Daughter;fontSource=https%3A%2F%2Ffonts.googleapis.com%2Fcss%3Ffamily%3DArchitects%2BDaughter;" vertex="1" parent="Q8J0EgSjeOoPt-JhZ52s-10">
          <mxGeometry y="90" width="160" height="34" as="geometry" />
        </mxCell>
        <mxCell id="Q8J0EgSjeOoPt-JhZ52s-14" value="&lt;font face=&quot;Times New Roman&quot;&gt;Precio&lt;/font&gt;" style="text;strokeColor=none;fillColor=none;spacingLeft=4;spacingRight=4;overflow=hidden;rotatable=0;points=[[0,0.5],[1,0.5]];portConstraint=eastwest;fontSize=12;whiteSpace=wrap;html=1;fontFamily=Architects Daughter;fontSource=https://fonts.googleapis.com/css?family=Architects+Daughter;" vertex="1" parent="Q8J0EgSjeOoPt-JhZ52s-10">
          <mxGeometry y="124" width="160" height="34" as="geometry" />
        </mxCell>
        <mxCell id="Q8J0EgSjeOoPt-JhZ52s-15" style="edgeStyle=orthogonalEdgeStyle;rounded=0;hachureGap=4;orthogonalLoop=1;jettySize=auto;html=1;entryX=0;entryY=0.5;entryDx=0;entryDy=0;fontFamily=Architects Daughter;fontSource=https%3A%2F%2Ffonts.googleapis.com%2Fcss%3Ffamily%3DArchitects%2BDaughter;" edge="1" parent="1" source="Q8J0EgSjeOoPt-JhZ52s-6" target="Q8J0EgSjeOoPt-JhZ52s-12">
          <mxGeometry relative="1" as="geometry" />
        </mxCell>
        <mxCell id="Q8J0EgSjeOoPt-JhZ52s-16" value="DetalleOrdenes" style="swimlane;fontStyle=0;childLayout=stackLayout;horizontal=1;startSize=26;horizontalStack=0;resizeParent=1;resizeParentMax=0;resizeLast=0;collapsible=1;marginBottom=0;align=center;fontSize=14;hachureGap=4;fontFamily=Times New Roman;fillColor=default;swimlaneLine=1;" vertex="1" parent="1">
          <mxGeometry x="550" y="60" width="160" height="158" as="geometry" />
        </mxCell>
        <mxCell id="Q8J0EgSjeOoPt-JhZ52s-17" value="&lt;div&gt;&lt;font face=&quot;Times New Roman&quot;&gt;OrdenID&lt;/font&gt;&lt;/div&gt;" style="text;strokeColor=#6c8ebf;fillColor=#dae8fc;spacingLeft=4;spacingRight=4;overflow=hidden;rotatable=0;points=[[0,0.5],[1,0.5]];portConstraint=eastwest;fontSize=12;whiteSpace=wrap;html=1;fontFamily=Architects Daughter;fontSource=https%3A%2F%2Ffonts.googleapis.com%2Fcss%3Ffamily%3DArchitects%2BDaughter;" vertex="1" parent="Q8J0EgSjeOoPt-JhZ52s-16">
          <mxGeometry y="26" width="160" height="30" as="geometry" />
        </mxCell>
        <mxCell id="Q8J0EgSjeOoPt-JhZ52s-18" value="&lt;font face=&quot;Times New Roman&quot;&gt;ProductoID&lt;/font&gt;" style="text;strokeColor=#6c8ebf;fillColor=#dae8fc;spacingLeft=4;spacingRight=4;overflow=hidden;rotatable=0;points=[[0,0.5],[1,0.5]];portConstraint=eastwest;fontSize=12;whiteSpace=wrap;html=1;fontFamily=Architects Daughter;fontSource=https%3A%2F%2Ffonts.googleapis.com%2Fcss%3Ffamily%3DArchitects%2BDaughter;" vertex="1" parent="Q8J0EgSjeOoPt-JhZ52s-16">
          <mxGeometry y="56" width="160" height="34" as="geometry" />
        </mxCell>
        <mxCell id="Q8J0EgSjeOoPt-JhZ52s-19" value="&lt;font face=&quot;Times New Roman&quot;&gt;Cantidad&lt;/font&gt;" style="text;strokeColor=none;fillColor=none;spacingLeft=4;spacingRight=4;overflow=hidden;rotatable=0;points=[[0,0.5],[1,0.5]];portConstraint=eastwest;fontSize=12;whiteSpace=wrap;html=1;fontFamily=Architects Daughter;fontSource=https%3A%2F%2Ffonts.googleapis.com%2Fcss%3Ffamily%3DArchitects%2BDaughter;" vertex="1" parent="Q8J0EgSjeOoPt-JhZ52s-16">
          <mxGeometry y="90" width="160" height="34" as="geometry" />
        </mxCell>
        <mxCell id="Q8J0EgSjeOoPt-JhZ52s-20" value="&lt;font face=&quot;Times New Roman&quot;&gt;Precio&lt;/font&gt;" style="text;strokeColor=none;fillColor=none;spacingLeft=4;spacingRight=4;overflow=hidden;rotatable=0;points=[[0,0.5],[1,0.5]];portConstraint=eastwest;fontSize=12;whiteSpace=wrap;html=1;fontFamily=Architects Daughter;fontSource=https://fonts.googleapis.com/css?family=Architects+Daughter;" vertex="1" parent="Q8J0EgSjeOoPt-JhZ52s-16">
          <mxGeometry y="124" width="160" height="34" as="geometry" />
        </mxCell>
        <mxCell id="Q8J0EgSjeOoPt-JhZ52s-22" style="edgeStyle=orthogonalEdgeStyle;rounded=0;hachureGap=4;orthogonalLoop=1;jettySize=auto;html=1;fontFamily=Architects Daughter;fontSource=https%3A%2F%2Ffonts.googleapis.com%2Fcss%3Ffamily%3DArchitects%2BDaughter;" edge="1" parent="1" source="Q8J0EgSjeOoPt-JhZ52s-11" target="Q8J0EgSjeOoPt-JhZ52s-18">
          <mxGeometry relative="1" as="geometry" />
        </mxCell>
        <mxCell id="Q8J0EgSjeOoPt-JhZ52s-23" value="Clientes" style="swimlane;fontStyle=0;childLayout=stackLayout;horizontal=1;startSize=26;horizontalStack=0;resizeParent=1;resizeParentMax=0;resizeLast=0;collapsible=1;marginBottom=0;align=center;fontSize=14;hachureGap=4;fontFamily=Times New Roman;fillColor=default;swimlaneLine=1;" vertex="1" parent="1">
          <mxGeometry x="830" y="50" width="160" height="124" as="geometry" />
        </mxCell>
        <mxCell id="Q8J0EgSjeOoPt-JhZ52s-24" value="&lt;div&gt;&lt;font face=&quot;Times New Roman&quot;&gt;ClienteID&lt;/font&gt;&lt;/div&gt;" style="text;strokeColor=#6c8ebf;fillColor=#dae8fc;spacingLeft=4;spacingRight=4;overflow=hidden;rotatable=0;points=[[0,0.5],[1,0.5]];portConstraint=eastwest;fontSize=12;whiteSpace=wrap;html=1;fontFamily=Architects Daughter;fontSource=https%3A%2F%2Ffonts.googleapis.com%2Fcss%3Ffamily%3DArchitects%2BDaughter;" vertex="1" parent="Q8J0EgSjeOoPt-JhZ52s-23">
          <mxGeometry y="26" width="160" height="30" as="geometry" />
        </mxCell>
        <mxCell id="Q8J0EgSjeOoPt-JhZ52s-25" value="&lt;font face=&quot;Times New Roman&quot;&gt;Nombre&lt;/font&gt;" style="text;spacingLeft=4;spacingRight=4;overflow=hidden;rotatable=0;points=[[0,0.5],[1,0.5]];portConstraint=eastwest;fontSize=12;whiteSpace=wrap;html=1;fontFamily=Architects Daughter;fontSource=https%3A%2F%2Ffonts.googleapis.com%2Fcss%3Ffamily%3DArchitects%2BDaughter;" vertex="1" parent="Q8J0EgSjeOoPt-JhZ52s-23">
          <mxGeometry y="56" width="160" height="34" as="geometry" />
        </mxCell>
        <mxCell id="Q8J0EgSjeOoPt-JhZ52s-26" value="&lt;font face=&quot;Times New Roman&quot;&gt;Direccion&lt;/font&gt;" style="text;strokeColor=none;fillColor=none;spacingLeft=4;spacingRight=4;overflow=hidden;rotatable=0;points=[[0,0.5],[1,0.5]];portConstraint=eastwest;fontSize=12;whiteSpace=wrap;html=1;fontFamily=Architects Daughter;fontSource=https%3A%2F%2Ffonts.googleapis.com%2Fcss%3Ffamily%3DArchitects%2BDaughter;" vertex="1" parent="Q8J0EgSjeOoPt-JhZ52s-23">
          <mxGeometry y="90" width="160" height="34" as="geometry" />
        </mxCell>
        <mxCell id="Q8J0EgSjeOoPt-JhZ52s-28" value="Mensajeros" style="swimlane;fontStyle=0;childLayout=stackLayout;horizontal=1;startSize=26;horizontalStack=0;resizeParent=1;resizeParentMax=0;resizeLast=0;collapsible=1;marginBottom=0;align=center;fontSize=14;hachureGap=4;fontFamily=Times New Roman;fillColor=default;swimlaneLine=1;" vertex="1" parent="1">
          <mxGeometry x="830" y="240" width="160" height="124" as="geometry" />
        </mxCell>
        <mxCell id="Q8J0EgSjeOoPt-JhZ52s-29" value="&lt;div&gt;&lt;font face=&quot;Times New Roman&quot;&gt;MensajeroID&lt;/font&gt;&lt;/div&gt;" style="text;strokeColor=#6c8ebf;fillColor=#dae8fc;spacingLeft=4;spacingRight=4;overflow=hidden;rotatable=0;points=[[0,0.5],[1,0.5]];portConstraint=eastwest;fontSize=12;whiteSpace=wrap;html=1;fontFamily=Architects Daughter;fontSource=https%3A%2F%2Ffonts.googleapis.com%2Fcss%3Ffamily%3DArchitects%2BDaughter;" vertex="1" parent="Q8J0EgSjeOoPt-JhZ52s-28">
          <mxGeometry y="26" width="160" height="30" as="geometry" />
        </mxCell>
        <mxCell id="Q8J0EgSjeOoPt-JhZ52s-30" value="&lt;font face=&quot;Times New Roman&quot;&gt;Nombre&lt;/font&gt;" style="text;spacingLeft=4;spacingRight=4;overflow=hidden;rotatable=0;points=[[0,0.5],[1,0.5]];portConstraint=eastwest;fontSize=12;whiteSpace=wrap;html=1;fontFamily=Architects Daughter;fontSource=https%3A%2F%2Ffonts.googleapis.com%2Fcss%3Ffamily%3DArchitects%2BDaughter;" vertex="1" parent="Q8J0EgSjeOoPt-JhZ52s-28">
          <mxGeometry y="56" width="160" height="34" as="geometry" />
        </mxCell>
        <mxCell id="Q8J0EgSjeOoPt-JhZ52s-31" value="&lt;font face=&quot;Times New Roman&quot;&gt;EsExterno&lt;/font&gt;" style="text;strokeColor=none;fillColor=none;spacingLeft=4;spacingRight=4;overflow=hidden;rotatable=0;points=[[0,0.5],[1,0.5]];portConstraint=eastwest;fontSize=12;whiteSpace=wrap;html=1;fontFamily=Architects Daughter;fontSource=https%3A%2F%2Ffonts.googleapis.com%2Fcss%3Ffamily%3DArchitects%2BDaughter;" vertex="1" parent="Q8J0EgSjeOoPt-JhZ52s-28">
          <mxGeometry y="90" width="160" height="34" as="geometry" />
        </mxCell>
        <mxCell id="Q8J0EgSjeOoPt-JhZ52s-33" value="TiposPago" style="swimlane;fontStyle=0;childLayout=stackLayout;horizontal=1;startSize=26;horizontalStack=0;resizeParent=1;resizeParentMax=0;resizeLast=0;collapsible=1;marginBottom=0;align=center;fontSize=14;hachureGap=4;fontFamily=Times New Roman;fillColor=default;swimlaneLine=1;" vertex="1" parent="1">
          <mxGeometry x="840" y="413.5" width="160" height="90" as="geometry" />
        </mxCell>
        <mxCell id="Q8J0EgSjeOoPt-JhZ52s-34" value="&lt;div&gt;&lt;font face=&quot;Times New Roman&quot;&gt;TipoPagoID&lt;/font&gt;&lt;/div&gt;" style="text;strokeColor=#6c8ebf;fillColor=#dae8fc;spacingLeft=4;spacingRight=4;overflow=hidden;rotatable=0;points=[[0,0.5],[1,0.5]];portConstraint=eastwest;fontSize=12;whiteSpace=wrap;html=1;fontFamily=Architects Daughter;fontSource=https%3A%2F%2Ffonts.googleapis.com%2Fcss%3Ffamily%3DArchitects%2BDaughter;" vertex="1" parent="Q8J0EgSjeOoPt-JhZ52s-33">
          <mxGeometry y="26" width="160" height="30" as="geometry" />
        </mxCell>
        <mxCell id="Q8J0EgSjeOoPt-JhZ52s-35" value="&lt;font face=&quot;Times New Roman&quot;&gt;Descripcion&lt;/font&gt;" style="text;spacingLeft=4;spacingRight=4;overflow=hidden;rotatable=0;points=[[0,0.5],[1,0.5]];portConstraint=eastwest;fontSize=12;whiteSpace=wrap;html=1;fontFamily=Architects Daughter;fontSource=https%3A%2F%2Ffonts.googleapis.com%2Fcss%3Ffamily%3DArchitects%2BDaughter;" vertex="1" parent="Q8J0EgSjeOoPt-JhZ52s-33">
          <mxGeometry y="56" width="160" height="34" as="geometry" />
        </mxCell>
        <mxCell id="Q8J0EgSjeOoPt-JhZ52s-37" value="OrigenesOrden" style="swimlane;fontStyle=0;childLayout=stackLayout;horizontal=1;startSize=26;horizontalStack=0;resizeParent=1;resizeParentMax=0;resizeLast=0;collapsible=1;marginBottom=0;align=center;fontSize=14;hachureGap=4;fontFamily=Times New Roman;fillColor=default;swimlaneLine=1;" vertex="1" parent="1">
          <mxGeometry x="840" y="560" width="160" height="90" as="geometry" />
        </mxCell>
        <mxCell id="Q8J0EgSjeOoPt-JhZ52s-38" value="&lt;div&gt;&lt;font face=&quot;Times New Roman&quot;&gt;OrigenID&lt;/font&gt;&lt;/div&gt;" style="text;strokeColor=#6c8ebf;fillColor=#dae8fc;spacingLeft=4;spacingRight=4;overflow=hidden;rotatable=0;points=[[0,0.5],[1,0.5]];portConstraint=eastwest;fontSize=12;whiteSpace=wrap;html=1;fontFamily=Architects Daughter;fontSource=https%3A%2F%2Ffonts.googleapis.com%2Fcss%3Ffamily%3DArchitects%2BDaughter;" vertex="1" parent="Q8J0EgSjeOoPt-JhZ52s-37">
          <mxGeometry y="26" width="160" height="30" as="geometry" />
        </mxCell>
        <mxCell id="Q8J0EgSjeOoPt-JhZ52s-39" value="&lt;font face=&quot;Times New Roman&quot;&gt;Descripcion&lt;/font&gt;" style="text;spacingLeft=4;spacingRight=4;overflow=hidden;rotatable=0;points=[[0,0.5],[1,0.5]];portConstraint=eastwest;fontSize=12;whiteSpace=wrap;html=1;fontFamily=Architects Daughter;fontSource=https%3A%2F%2Ffonts.googleapis.com%2Fcss%3Ffamily%3DArchitects%2BDaughter;" vertex="1" parent="Q8J0EgSjeOoPt-JhZ52s-37">
          <mxGeometry y="56" width="160" height="34" as="geometry" />
        </mxCell>
        <mxCell id="Q8J0EgSjeOoPt-JhZ52s-40" value="Empleados" style="swimlane;fontStyle=0;childLayout=stackLayout;horizontal=1;startSize=26;horizontalStack=0;resizeParent=1;resizeParentMax=0;resizeLast=0;collapsible=1;marginBottom=0;align=center;fontSize=14;hachureGap=4;fontFamily=Times New Roman;fillColor=default;swimlaneLine=1;" vertex="1" parent="1">
          <mxGeometry x="50" y="310" width="160" height="224" as="geometry" />
        </mxCell>
        <mxCell id="Q8J0EgSjeOoPt-JhZ52s-41" value="&lt;div&gt;&lt;font face=&quot;Times New Roman&quot;&gt;EmpleadoID&lt;/font&gt;&lt;/div&gt;" style="text;strokeColor=#6c8ebf;fillColor=#dae8fc;spacingLeft=4;spacingRight=4;overflow=hidden;rotatable=0;points=[[0,0.5],[1,0.5]];portConstraint=eastwest;fontSize=12;whiteSpace=wrap;html=1;fontFamily=Architects Daughter;fontSource=https%3A%2F%2Ffonts.googleapis.com%2Fcss%3Ffamily%3DArchitects%2BDaughter;" vertex="1" parent="Q8J0EgSjeOoPt-JhZ52s-40">
          <mxGeometry y="26" width="160" height="30" as="geometry" />
        </mxCell>
        <mxCell id="Q8J0EgSjeOoPt-JhZ52s-42" value="&lt;font face=&quot;Times New Roman&quot;&gt;SucursalID&lt;/font&gt;" style="text;strokeColor=#b85450;fillColor=#f8cecc;spacingLeft=4;spacingRight=4;overflow=hidden;rotatable=0;points=[[0,0.5],[1,0.5]];portConstraint=eastwest;fontSize=12;whiteSpace=wrap;html=1;fontFamily=Architects Daughter;fontSource=https%3A%2F%2Ffonts.googleapis.com%2Fcss%3Ffamily%3DArchitects%2BDaughter;" vertex="1" parent="Q8J0EgSjeOoPt-JhZ52s-40">
          <mxGeometry y="56" width="160" height="34" as="geometry" />
        </mxCell>
        <mxCell id="Q8J0EgSjeOoPt-JhZ52s-43" value="&lt;font face=&quot;Times New Roman&quot;&gt;Nombre&lt;/font&gt;" style="text;strokeColor=none;fillColor=none;spacingLeft=4;spacingRight=4;overflow=hidden;rotatable=0;points=[[0,0.5],[1,0.5]];portConstraint=eastwest;fontSize=12;whiteSpace=wrap;html=1;fontFamily=Architects Daughter;fontSource=https%3A%2F%2Ffonts.googleapis.com%2Fcss%3Ffamily%3DArchitects%2BDaughter;" vertex="1" parent="Q8J0EgSjeOoPt-JhZ52s-40">
          <mxGeometry y="90" width="160" height="34" as="geometry" />
        </mxCell>
        <mxCell id="Q8J0EgSjeOoPt-JhZ52s-45" value="&lt;font face=&quot;Times New Roman&quot;&gt;Posición&lt;/font&gt;" style="text;strokeColor=none;fillColor=none;spacingLeft=4;spacingRight=4;overflow=hidden;rotatable=0;points=[[0,0.5],[1,0.5]];portConstraint=eastwest;fontSize=12;whiteSpace=wrap;html=1;fontFamily=Architects Daughter;fontSource=https://fonts.googleapis.com/css?family=Architects+Daughter;" vertex="1" parent="Q8J0EgSjeOoPt-JhZ52s-40">
          <mxGeometry y="124" width="160" height="34" as="geometry" />
        </mxCell>
        <mxCell id="Q8J0EgSjeOoPt-JhZ52s-44" value="&lt;font face=&quot;Times New Roman&quot;&gt;Departamentos&lt;/font&gt;&lt;div&gt;&lt;font face=&quot;Times New Roman&quot;&gt;&lt;br&gt;&lt;/font&gt;&lt;/div&gt;&lt;div&gt;&lt;font face=&quot;Times New Roman&quot;&gt;&lt;br&gt;&lt;/font&gt;&lt;/div&gt;" style="text;strokeColor=none;fillColor=none;spacingLeft=4;spacingRight=4;overflow=hidden;rotatable=0;points=[[0,0.5],[1,0.5]];portConstraint=eastwest;fontSize=12;whiteSpace=wrap;html=1;fontFamily=Architects Daughter;fontSource=https://fonts.googleapis.com/css?family=Architects+Daughter;" vertex="1" parent="Q8J0EgSjeOoPt-JhZ52s-40">
          <mxGeometry y="158" width="160" height="32" as="geometry" />
        </mxCell>
        <mxCell id="Q8J0EgSjeOoPt-JhZ52s-94" value="&lt;font face=&quot;Times New Roman&quot;&gt;Rol&lt;/font&gt;" style="text;strokeColor=none;fillColor=none;spacingLeft=4;spacingRight=4;overflow=hidden;rotatable=0;points=[[0,0.5],[1,0.5]];portConstraint=eastwest;fontSize=12;whiteSpace=wrap;html=1;fontFamily=Architects Daughter;fontSource=https://fonts.googleapis.com/css?family=Architects+Daughter;" vertex="1" parent="Q8J0EgSjeOoPt-JhZ52s-40">
          <mxGeometry y="190" width="160" height="34" as="geometry" />
        </mxCell>
        <mxCell id="Q8J0EgSjeOoPt-JhZ52s-66" value="Ordenes" style="swimlane;fontStyle=0;childLayout=stackLayout;horizontal=1;startSize=26;horizontalStack=0;resizeParent=1;resizeParentMax=0;resizeLast=0;collapsible=1;marginBottom=0;align=center;fontSize=14;hachureGap=4;fontFamily=Times New Roman;fillColor=default;swimlaneLine=1;" vertex="1" parent="1">
          <mxGeometry x="490" y="320" width="160" height="498" as="geometry">
            <mxRectangle x="90" y="335" width="100" height="30" as="alternateBounds" />
          </mxGeometry>
        </mxCell>
        <mxCell id="Q8J0EgSjeOoPt-JhZ52s-67" value="&lt;div&gt;&lt;font face=&quot;Times New Roman&quot;&gt;OrdenID&lt;span style=&quot;white-space: pre;&quot;&gt;&#x9;&lt;/span&gt;&lt;/font&gt;&lt;/div&gt;" style="text;strokeColor=#6c8ebf;fillColor=#dae8fc;spacingLeft=4;spacingRight=4;overflow=hidden;rotatable=0;points=[[0,0.5],[1,0.5]];portConstraint=eastwest;fontSize=12;whiteSpace=wrap;html=1;fontFamily=Architects Daughter;fontSource=https://fonts.googleapis.com/css?family=Architects+Daughter;" vertex="1" parent="Q8J0EgSjeOoPt-JhZ52s-66">
          <mxGeometry y="26" width="160" height="30" as="geometry" />
        </mxCell>
        <mxCell id="Q8J0EgSjeOoPt-JhZ52s-68" value="&lt;font face=&quot;Times New Roman&quot;&gt;ClienteID&lt;/font&gt;" style="text;spacingLeft=4;spacingRight=4;overflow=hidden;rotatable=0;points=[[0,0.5],[1,0.5]];portConstraint=eastwest;fontSize=12;whiteSpace=wrap;html=1;fontFamily=Architects Daughter;fontSource=https://fonts.googleapis.com/css?family=Architects+Daughter;fillColor=#f8cecc;strokeColor=#b85450;" vertex="1" parent="Q8J0EgSjeOoPt-JhZ52s-66">
          <mxGeometry y="56" width="160" height="34" as="geometry" />
        </mxCell>
        <mxCell id="Q8J0EgSjeOoPt-JhZ52s-70" value="&lt;font face=&quot;Times New Roman&quot;&gt;EmpleadoID&lt;/font&gt;" style="text;strokeColor=#b85450;fillColor=#f8cecc;spacingLeft=4;spacingRight=4;overflow=hidden;rotatable=0;points=[[0,0.5],[1,0.5]];portConstraint=eastwest;fontSize=12;whiteSpace=wrap;html=1;fontFamily=Architects Daughter;fontSource=https://fonts.googleapis.com/css?family=Architects+Daughter;" vertex="1" parent="Q8J0EgSjeOoPt-JhZ52s-66">
          <mxGeometry y="90" width="160" height="34" as="geometry" />
        </mxCell>
        <mxCell id="Q8J0EgSjeOoPt-JhZ52s-72" value="&lt;font face=&quot;Times New Roman&quot;&gt;SucursalID&lt;/font&gt;" style="text;strokeColor=#b85450;fillColor=#f8cecc;spacingLeft=4;spacingRight=4;overflow=hidden;rotatable=0;points=[[0,0.5],[1,0.5]];portConstraint=eastwest;fontSize=12;whiteSpace=wrap;html=1;fontFamily=Architects Daughter;fontSource=https://fonts.googleapis.com/css?family=Architects+Daughter;" vertex="1" parent="Q8J0EgSjeOoPt-JhZ52s-66">
          <mxGeometry y="124" width="160" height="34" as="geometry" />
        </mxCell>
        <mxCell id="Q8J0EgSjeOoPt-JhZ52s-73" value="&lt;font face=&quot;Times New Roman&quot;&gt;MensajeroID&lt;/font&gt;&lt;br&gt;&lt;div&gt;&lt;font face=&quot;Times New Roman&quot;&gt;&lt;br&gt;&lt;/font&gt;&lt;/div&gt;&lt;div&gt;&lt;font face=&quot;Times New Roman&quot;&gt;&lt;br&gt;&lt;/font&gt;&lt;/div&gt;&lt;div&gt;&lt;font face=&quot;Times New Roman&quot;&gt;&lt;br&gt;&lt;/font&gt;&lt;/div&gt;&lt;div&gt;&lt;font face=&quot;Times New Roman&quot;&gt;&lt;br&gt;&lt;/font&gt;&lt;/div&gt;&lt;div&gt;&lt;font face=&quot;Times New Roman&quot;&gt;&lt;br&gt;&lt;/font&gt;&lt;/div&gt;&lt;div&gt;&lt;font face=&quot;Times New Roman&quot;&gt;&lt;br&gt;&lt;/font&gt;&lt;/div&gt;&lt;div&gt;&lt;font face=&quot;Times New Roman&quot;&gt;&lt;br&gt;&lt;/font&gt;&lt;/div&gt;" style="text;strokeColor=#b85450;fillColor=#f8cecc;spacingLeft=4;spacingRight=4;overflow=hidden;rotatable=0;points=[[0,0.5],[1,0.5]];portConstraint=eastwest;fontSize=12;whiteSpace=wrap;html=1;fontFamily=Architects Daughter;fontSource=https://fonts.googleapis.com/css?family=Architects+Daughter;" vertex="1" parent="Q8J0EgSjeOoPt-JhZ52s-66">
          <mxGeometry y="158" width="160" height="34" as="geometry" />
        </mxCell>
        <mxCell id="Q8J0EgSjeOoPt-JhZ52s-76" value="&lt;font face=&quot;Times New Roman&quot;&gt;TipodePagoID&lt;/font&gt;" style="text;strokeColor=#b85450;fillColor=#f8cecc;spacingLeft=4;spacingRight=4;overflow=hidden;rotatable=0;points=[[0,0.5],[1,0.5]];portConstraint=eastwest;fontSize=12;whiteSpace=wrap;html=1;fontFamily=Architects Daughter;fontSource=https://fonts.googleapis.com/css?family=Architects+Daughter;" vertex="1" parent="Q8J0EgSjeOoPt-JhZ52s-66">
          <mxGeometry y="192" width="160" height="34" as="geometry" />
        </mxCell>
        <mxCell id="Q8J0EgSjeOoPt-JhZ52s-77" value="&lt;font face=&quot;Times New Roman&quot;&gt;OrigeneID&lt;/font&gt;" style="text;strokeColor=#b85450;fillColor=#f8cecc;spacingLeft=4;spacingRight=4;overflow=hidden;rotatable=0;points=[[0,0.5],[1,0.5]];portConstraint=eastwest;fontSize=12;whiteSpace=wrap;html=1;fontFamily=Architects Daughter;fontSource=https://fonts.googleapis.com/css?family=Architects+Daughter;" vertex="1" parent="Q8J0EgSjeOoPt-JhZ52s-66">
          <mxGeometry y="226" width="160" height="34" as="geometry" />
        </mxCell>
        <mxCell id="Q8J0EgSjeOoPt-JhZ52s-88" value="&lt;font face=&quot;Times New Roman&quot;&gt;HorarioVentas&lt;/font&gt;&lt;br&gt;&lt;div&gt;&lt;font face=&quot;Times New Roman&quot;&gt;&lt;br&gt;&lt;/font&gt;&lt;/div&gt;&lt;div&gt;&lt;font face=&quot;Times New Roman&quot;&gt;&lt;br&gt;&lt;/font&gt;&lt;/div&gt;&lt;div&gt;&lt;font face=&quot;Times New Roman&quot;&gt;&lt;br&gt;&lt;/font&gt;&lt;/div&gt;&lt;div&gt;&lt;font face=&quot;Times New Roman&quot;&gt;&lt;br&gt;&lt;/font&gt;&lt;/div&gt;&lt;div&gt;&lt;font face=&quot;Times New Roman&quot;&gt;&lt;br&gt;&lt;/font&gt;&lt;/div&gt;&lt;div&gt;&lt;font face=&quot;Times New Roman&quot;&gt;&lt;br&gt;&lt;/font&gt;&lt;/div&gt;&lt;div&gt;&lt;font face=&quot;Times New Roman&quot;&gt;&lt;br&gt;&lt;/font&gt;&lt;/div&gt;" style="text;strokeColor=none;fillColor=none;spacingLeft=4;spacingRight=4;overflow=hidden;rotatable=0;points=[[0,0.5],[1,0.5]];portConstraint=eastwest;fontSize=12;whiteSpace=wrap;html=1;fontFamily=Architects Daughter;fontSource=https://fonts.googleapis.com/css?family=Architects+Daughter;" vertex="1" parent="Q8J0EgSjeOoPt-JhZ52s-66">
          <mxGeometry y="260" width="160" height="34" as="geometry" />
        </mxCell>
        <mxCell id="Q8J0EgSjeOoPt-JhZ52s-89" value="&lt;div&gt;&lt;font face=&quot;Times New Roman&quot;&gt;TotalCompra&lt;/font&gt;&lt;/div&gt;&lt;div&gt;&lt;font face=&quot;Times New Roman&quot;&gt;&lt;br&gt;&lt;/font&gt;&lt;/div&gt;&lt;div&gt;&lt;font face=&quot;Times New Roman&quot;&gt;&lt;br&gt;&lt;/font&gt;&lt;/div&gt;&lt;div&gt;&lt;font face=&quot;Times New Roman&quot;&gt;&lt;br&gt;&lt;/font&gt;&lt;/div&gt;&lt;div&gt;&lt;font face=&quot;Times New Roman&quot;&gt;&lt;br&gt;&lt;/font&gt;&lt;/div&gt;&lt;div&gt;&lt;font face=&quot;Times New Roman&quot;&gt;&lt;br&gt;&lt;/font&gt;&lt;/div&gt;&lt;div&gt;&lt;font face=&quot;Times New Roman&quot;&gt;&lt;br&gt;&lt;/font&gt;&lt;/div&gt;" style="text;strokeColor=none;fillColor=none;spacingLeft=4;spacingRight=4;overflow=hidden;rotatable=0;points=[[0,0.5],[1,0.5]];portConstraint=eastwest;fontSize=12;whiteSpace=wrap;html=1;fontFamily=Architects Daughter;fontSource=https://fonts.googleapis.com/css?family=Architects+Daughter;" vertex="1" parent="Q8J0EgSjeOoPt-JhZ52s-66">
          <mxGeometry y="294" width="160" height="34" as="geometry" />
        </mxCell>
        <mxCell id="Q8J0EgSjeOoPt-JhZ52s-90" value="&lt;div&gt;&lt;font face=&quot;Times New Roman&quot;&gt;KmRecorrer&lt;/font&gt;&lt;/div&gt;" style="text;strokeColor=none;fillColor=none;spacingLeft=4;spacingRight=4;overflow=hidden;rotatable=0;points=[[0,0.5],[1,0.5]];portConstraint=eastwest;fontSize=12;whiteSpace=wrap;html=1;fontFamily=Architects Daughter;fontSource=https://fonts.googleapis.com/css?family=Architects+Daughter;" vertex="1" parent="Q8J0EgSjeOoPt-JhZ52s-66">
          <mxGeometry y="328" width="160" height="34" as="geometry" />
        </mxCell>
        <mxCell id="Q8J0EgSjeOoPt-JhZ52s-91" value="&lt;div&gt;&lt;font face=&quot;Times New Roman&quot;&gt;FechaDespacho&lt;/font&gt;&lt;/div&gt;" style="text;strokeColor=none;fillColor=none;spacingLeft=4;spacingRight=4;overflow=hidden;rotatable=0;points=[[0,0.5],[1,0.5]];portConstraint=eastwest;fontSize=12;whiteSpace=wrap;html=1;fontFamily=Architects Daughter;fontSource=https://fonts.googleapis.com/css?family=Architects+Daughter;" vertex="1" parent="Q8J0EgSjeOoPt-JhZ52s-66">
          <mxGeometry y="362" width="160" height="34" as="geometry" />
        </mxCell>
        <mxCell id="Q8J0EgSjeOoPt-JhZ52s-92" value="&lt;div&gt;&lt;font face=&quot;Times New Roman&quot;&gt;FechaEntrega&lt;/font&gt;&lt;/div&gt;" style="text;strokeColor=none;fillColor=none;spacingLeft=4;spacingRight=4;overflow=hidden;rotatable=0;points=[[0,0.5],[1,0.5]];portConstraint=eastwest;fontSize=12;whiteSpace=wrap;html=1;fontFamily=Architects Daughter;fontSource=https://fonts.googleapis.com/css?family=Architects+Daughter;" vertex="1" parent="Q8J0EgSjeOoPt-JhZ52s-66">
          <mxGeometry y="396" width="160" height="34" as="geometry" />
        </mxCell>
        <mxCell id="Q8J0EgSjeOoPt-JhZ52s-93" value="&lt;div&gt;&lt;font face=&quot;Times New Roman&quot;&gt;FechaOrdenTomada&lt;/font&gt;&lt;/div&gt;" style="text;strokeColor=none;fillColor=none;spacingLeft=4;spacingRight=4;overflow=hidden;rotatable=0;points=[[0,0.5],[1,0.5]];portConstraint=eastwest;fontSize=12;whiteSpace=wrap;html=1;fontFamily=Architects Daughter;fontSource=https://fonts.googleapis.com/css?family=Architects+Daughter;" vertex="1" parent="Q8J0EgSjeOoPt-JhZ52s-66">
          <mxGeometry y="430" width="160" height="34" as="geometry" />
        </mxCell>
        <mxCell id="Q8J0EgSjeOoPt-JhZ52s-101" value="&lt;div&gt;&lt;font face=&quot;Times New Roman&quot;&gt;FechaOrdenLista&lt;/font&gt;&lt;/div&gt;" style="text;strokeColor=none;fillColor=none;spacingLeft=4;spacingRight=4;overflow=hidden;rotatable=0;points=[[0,0.5],[1,0.5]];portConstraint=eastwest;fontSize=12;whiteSpace=wrap;html=1;fontFamily=Architects Daughter;fontSource=https://fonts.googleapis.com/css?family=Architects+Daughter;" vertex="1" parent="Q8J0EgSjeOoPt-JhZ52s-66">
          <mxGeometry y="464" width="160" height="34" as="geometry" />
        </mxCell>
        <mxCell id="Q8J0EgSjeOoPt-JhZ52s-95" value="Sucursales" style="swimlane;fontStyle=0;childLayout=stackLayout;horizontal=1;startSize=26;horizontalStack=0;resizeParent=1;resizeParentMax=0;resizeLast=0;collapsible=1;marginBottom=0;align=center;fontSize=14;hachureGap=4;fontFamily=Times New Roman;fillColor=default;swimlaneLine=1;" vertex="1" parent="1">
          <mxGeometry x="250" y="624" width="160" height="124" as="geometry" />
        </mxCell>
        <mxCell id="Q8J0EgSjeOoPt-JhZ52s-96" value="&lt;div&gt;&lt;font face=&quot;Times New Roman&quot;&gt;SucursalID&lt;/font&gt;&lt;/div&gt;" style="text;strokeColor=#6c8ebf;fillColor=#dae8fc;spacingLeft=4;spacingRight=4;overflow=hidden;rotatable=0;points=[[0,0.5],[1,0.5]];portConstraint=eastwest;fontSize=12;whiteSpace=wrap;html=1;fontFamily=Architects Daughter;fontSource=https%3A%2F%2Ffonts.googleapis.com%2Fcss%3Ffamily%3DArchitects%2BDaughter;" vertex="1" parent="Q8J0EgSjeOoPt-JhZ52s-95">
          <mxGeometry y="26" width="160" height="30" as="geometry" />
        </mxCell>
        <mxCell id="Q8J0EgSjeOoPt-JhZ52s-97" value="&lt;font face=&quot;Times New Roman&quot;&gt;Nombre&lt;/font&gt;" style="text;spacingLeft=4;spacingRight=4;overflow=hidden;rotatable=0;points=[[0,0.5],[1,0.5]];portConstraint=eastwest;fontSize=12;whiteSpace=wrap;html=1;fontFamily=Architects Daughter;fontSource=https%3A%2F%2Ffonts.googleapis.com%2Fcss%3Ffamily%3DArchitects%2BDaughter;" vertex="1" parent="Q8J0EgSjeOoPt-JhZ52s-95">
          <mxGeometry y="56" width="160" height="34" as="geometry" />
        </mxCell>
        <mxCell id="Q8J0EgSjeOoPt-JhZ52s-98" value="&lt;font face=&quot;Times New Roman&quot;&gt;Direccion&lt;/font&gt;" style="text;strokeColor=none;fillColor=none;spacingLeft=4;spacingRight=4;overflow=hidden;rotatable=0;points=[[0,0.5],[1,0.5]];portConstraint=eastwest;fontSize=12;whiteSpace=wrap;html=1;fontFamily=Architects Daughter;fontSource=https%3A%2F%2Ffonts.googleapis.com%2Fcss%3Ffamily%3DArchitects%2BDaughter;" vertex="1" parent="Q8J0EgSjeOoPt-JhZ52s-95">
          <mxGeometry y="90" width="160" height="34" as="geometry" />
        </mxCell>
        <mxCell id="Q8J0EgSjeOoPt-JhZ52s-102" style="edgeStyle=orthogonalEdgeStyle;rounded=0;orthogonalLoop=1;jettySize=auto;html=1;entryX=-0.025;entryY=0.324;entryDx=0;entryDy=0;entryPerimeter=0;" edge="1" parent="1" source="Q8J0EgSjeOoPt-JhZ52s-41" target="Q8J0EgSjeOoPt-JhZ52s-70">
          <mxGeometry relative="1" as="geometry" />
        </mxCell>
        <mxCell id="Q8J0EgSjeOoPt-JhZ52s-103" style="edgeStyle=orthogonalEdgeStyle;rounded=0;orthogonalLoop=1;jettySize=auto;html=1;entryX=0;entryY=0.5;entryDx=0;entryDy=0;" edge="1" parent="1" source="Q8J0EgSjeOoPt-JhZ52s-42" target="Q8J0EgSjeOoPt-JhZ52s-96">
          <mxGeometry relative="1" as="geometry">
            <Array as="points">
              <mxPoint x="230" y="383" />
            </Array>
          </mxGeometry>
        </mxCell>
        <mxCell id="Q8J0EgSjeOoPt-JhZ52s-105" style="edgeStyle=orthogonalEdgeStyle;rounded=0;orthogonalLoop=1;jettySize=auto;html=1;entryX=1;entryY=0.5;entryDx=0;entryDy=0;" edge="1" parent="1" source="Q8J0EgSjeOoPt-JhZ52s-24" target="Q8J0EgSjeOoPt-JhZ52s-68">
          <mxGeometry relative="1" as="geometry" />
        </mxCell>
        <mxCell id="Q8J0EgSjeOoPt-JhZ52s-106" style="edgeStyle=orthogonalEdgeStyle;rounded=0;orthogonalLoop=1;jettySize=auto;html=1;entryX=-0.025;entryY=0.294;entryDx=0;entryDy=0;entryPerimeter=0;" edge="1" parent="1" source="Q8J0EgSjeOoPt-JhZ52s-96" target="Q8J0EgSjeOoPt-JhZ52s-72">
          <mxGeometry relative="1" as="geometry" />
        </mxCell>
        <mxCell id="Q8J0EgSjeOoPt-JhZ52s-107" style="edgeStyle=orthogonalEdgeStyle;rounded=0;orthogonalLoop=1;jettySize=auto;html=1;entryX=1;entryY=0.5;entryDx=0;entryDy=0;" edge="1" parent="1" source="Q8J0EgSjeOoPt-JhZ52s-17" target="Q8J0EgSjeOoPt-JhZ52s-67">
          <mxGeometry relative="1" as="geometry" />
        </mxCell>
        <mxCell id="Q8J0EgSjeOoPt-JhZ52s-108" style="edgeStyle=orthogonalEdgeStyle;rounded=0;orthogonalLoop=1;jettySize=auto;html=1;entryX=1;entryY=0.5;entryDx=0;entryDy=0;" edge="1" parent="1" source="Q8J0EgSjeOoPt-JhZ52s-29" target="Q8J0EgSjeOoPt-JhZ52s-73">
          <mxGeometry relative="1" as="geometry">
            <Array as="points">
              <mxPoint x="760" y="281" />
              <mxPoint x="760" y="495" />
            </Array>
          </mxGeometry>
        </mxCell>
        <mxCell id="Q8J0EgSjeOoPt-JhZ52s-109" style="edgeStyle=orthogonalEdgeStyle;rounded=0;orthogonalLoop=1;jettySize=auto;html=1;exitX=0.25;exitY=0;exitDx=0;exitDy=0;entryX=0.306;entryY=-0.022;entryDx=0;entryDy=0;entryPerimeter=0;" edge="1" parent="1" source="Q8J0EgSjeOoPt-JhZ52s-37" target="Q8J0EgSjeOoPt-JhZ52s-37">
          <mxGeometry relative="1" as="geometry" />
        </mxCell>
        <mxCell id="Q8J0EgSjeOoPt-JhZ52s-110" style="edgeStyle=orthogonalEdgeStyle;rounded=0;orthogonalLoop=1;jettySize=auto;html=1;entryX=1;entryY=0.5;entryDx=0;entryDy=0;" edge="1" parent="1" source="Q8J0EgSjeOoPt-JhZ52s-34" target="Q8J0EgSjeOoPt-JhZ52s-76">
          <mxGeometry relative="1" as="geometry">
            <Array as="points">
              <mxPoint x="780" y="455" />
              <mxPoint x="780" y="529" />
            </Array>
          </mxGeometry>
        </mxCell>
        <mxCell id="Q8J0EgSjeOoPt-JhZ52s-111" style="edgeStyle=orthogonalEdgeStyle;rounded=0;orthogonalLoop=1;jettySize=auto;html=1;entryX=1;entryY=0.5;entryDx=0;entryDy=0;" edge="1" parent="1" source="Q8J0EgSjeOoPt-JhZ52s-38" target="Q8J0EgSjeOoPt-JhZ52s-77">
          <mxGeometry relative="1" as="geometry" />
        </mxCell>
      </root>
    </mxGraphModel>
  </diagram>
</mxfile>
